<svg width="315" height="65" viewBox="0 0 315 65" fill="none" xmlns="http://www.w3.org/2000/svg">
<path d="M38.1134 35.52C41.9534 35.52 44.9934 35.9 47.2334 36.66C49.4734 37.42 51.0734 38.72 52.0334 40.56C52.9934 42.36 53.4734 44.84 53.4734 48C53.4734 51.48 52.9334 54.12 51.8534 55.92C50.7734 57.72 49.1134 58.94 46.8734 59.58C44.6734 60.18 41.8934 60.48 38.5334 60.48C35.4534 60.48 32.6934 60.44 30.2534 60.36C27.8134 60.32 25.3134 60.2 22.7534 60H22.5134V18.6C24.9134 18.44 27.2934 18.34 29.6534 18.3C32.0534 18.22 34.3734 18.18 36.6134 18.18C39.0934 18.18 41.5134 18.22 43.8734 18.3C46.2334 18.38 48.5734 18.48 50.8934 18.6L50.1734 25.44H31.6334V35.52H38.1134ZM38.1134 41.52H31.6334V53.7C33.5534 53.7 35.7134 53.7 38.1134 53.7C39.7934 53.7 41.0734 53.54 41.9534 53.22C42.8334 52.9 43.4334 52.32 43.7534 51.48C44.1134 50.6 44.2934 49.32 44.2934 47.64C44.2934 46.08 44.1334 44.86 43.8134 43.98C43.4934 43.06 42.8934 42.42 42.0134 42.06C41.1334 41.7 39.8334 41.52 38.1134 41.52ZM65.2404 18.6L71.7204 40.62C71.8804 41.14 72.2804 41.4 72.9204 41.4H74.3604L81.5004 18.6H90.8604L80.7804 49.26C80.0604 51.54 79.2604 53.5 78.3804 55.14C77.5404 56.74 76.4804 58.02 75.2004 58.98C73.9604 59.9 72.3604 60.44 70.4004 60.6C69.4804 60.68 68.3804 60.68 67.1004 60.6C65.8604 60.56 64.6204 60.46 63.3804 60.3C62.1804 60.14 61.1604 59.96 60.3204 59.76L61.2804 53.4C63.6804 53.52 65.5204 53.56 66.8004 53.52C68.0804 53.48 69.0604 53.18 69.7404 52.62C70.4204 52.02 71.0204 51.02 71.5404 49.62L71.9604 48.18H69.6804C68.1604 48.18 66.9804 47.82 66.1404 47.1C65.3404 46.34 64.7404 45.3 64.3404 43.98L55.8204 18.6H65.2404ZM110.779 17.88C112.699 17.88 114.359 17.94 115.759 18.06C117.159 18.14 118.439 18.28 119.599 18.48C120.759 18.68 121.959 18.94 123.199 19.26L122.479 26.04C121.159 25.96 119.939 25.9 118.819 25.86C117.699 25.82 116.499 25.78 115.219 25.74C113.979 25.7 112.499 25.68 110.779 25.68C108.739 25.68 107.139 26.1 105.979 26.94C104.819 27.74 103.999 29.12 103.519 31.08C103.079 33.04 102.859 35.78 102.859 39.3C102.859 42.78 103.079 45.52 103.519 47.52C103.999 49.48 104.819 50.86 105.979 51.66C107.139 52.46 108.739 52.86 110.779 52.86C113.539 52.86 115.859 52.84 117.739 52.8C119.619 52.72 121.479 52.56 123.319 52.32L124.099 59.04C122.179 59.64 120.219 60.06 118.219 60.3C116.219 60.58 113.739 60.72 110.779 60.72C106.499 60.72 103.059 60.04 100.459 58.68C97.8995 57.28 96.0595 55.02 94.9395 51.9C93.8195 48.78 93.2595 44.58 93.2595 39.3C93.2595 34.02 93.8195 29.82 94.9395 26.7C96.0595 23.58 97.8995 21.34 100.459 19.98C103.059 18.58 106.499 17.88 110.779 17.88ZM160.813 18.6V25.8H148.333V60H139.213V25.8H126.733V18.6H160.813Z" fill="white"/>
<path d="M161 27C161 22.0294 165.029 18 170 18H315V51C315 55.9706 310.971 60 306 60H161V27Z" fill="#255BFA"/>
<path d="M179.856 24.95V36.875H190.926V24.95H197.766V56H190.926V42.005H179.856V56H172.971V24.95H179.856ZM218.975 24.95C219.545 24.95 220.04 25.115 220.46 25.445C220.91 25.775 221.21 26.21 221.36 26.75L230.36 56H223.34L221.045 47.765H210.335L208.085 56H201.065L210.065 26.75C210.215 26.21 210.5 25.775 210.92 25.445C211.37 25.115 211.88 24.95 212.45 24.95H218.975ZM214.43 33.14L211.775 42.635H219.605L216.995 33.14C216.845 32.66 216.71 32.165 216.59 31.655C216.5 31.115 216.41 30.605 216.32 30.125H215.105C215.015 30.605 214.91 31.115 214.79 31.655C214.67 32.165 214.55 32.66 214.43 33.14ZM240.32 24.95V51.185H248.96V24.95H255.62V51.185H264.26V24.95H270.965V56H233.615V24.95H240.32ZM303.034 24.95V56H296.464V37.55C296.464 36.86 296.494 36.17 296.554 35.48C296.614 34.76 296.704 34.055 296.824 33.365H296.554C296.074 34.805 295.489 36.155 294.799 37.415L284.134 56H277.429V24.95H283.999V43.04C283.999 43.73 283.954 44.45 283.864 45.2C283.804 45.95 283.729 46.685 283.639 47.405H283.864C284.374 45.995 285.004 44.63 285.754 43.31L296.329 24.95H303.034Z" fill="white"/>
</svg>
